# Blender v2.79 (sub 0) OBJ File: ''
# www.blender.org
mtllib bankaizangetsu.mtl
o bankaizangetsu
v 0.025033 0.062718 -0.011165
v 0.025032 0.062719 -0.029783
v 0.025033 -0.014053 -0.011165
v 0.025032 -0.014052 -0.029783
v 0.025032 -0.090824 -0.029783
v 0.025033 -0.090824 -0.011165
v 0.025033 0.139489 -0.011165
v 0.025032 0.139490 -0.029783
v 0.025033 0.216261 -0.011165
v 0.025032 0.216261 -0.029782
v 0.016170 1.607714 -0.053952
v 0.026843 1.727895 -0.065918
v 0.025323 1.745554 -0.086091
v 0.034942 1.607714 -0.053953
v 0.026150 1.681273 -0.048547
v 0.026067 1.612216 -0.036667
v 0.026149 1.391073 -0.022459
v 0.036456 1.387383 -0.039818
v 0.026150 1.162965 -0.012992
v 0.036455 1.160503 -0.030435
v 0.026150 0.925892 -0.006359
v 0.036456 0.924249 -0.023840
v 0.026149 0.691689 -0.002992
v 0.036457 0.690867 -0.020493
v 0.026149 0.503822 -0.002982
v 0.036457 0.503823 -0.020490
v 0.034942 1.607714 -0.053953
v 0.025559 1.603080 -0.071907
v 0.025323 1.745554 -0.086091
v 0.016170 1.607714 -0.053952
v 0.025560 1.383588 -0.057849
v 0.036456 1.387383 -0.039818
v 0.025560 1.157970 -0.048551
v 0.036455 1.160503 -0.030435
v 0.025559 0.922560 -0.041991
v 0.036456 0.924249 -0.023840
v 0.025560 0.690022 -0.038669
v 0.036457 0.690867 -0.020493
v 0.025561 0.503822 -0.038674
v 0.036457 0.503823 -0.020490
v 0.014656 1.387383 -0.039818
v 0.014656 1.160503 -0.030435
v 0.014656 0.924249 -0.023837
v 0.014656 0.690867 -0.020492
v 0.014657 0.503822 -0.020491
v 0.042130 0.471162 -0.020535
v 0.033844 0.239645 -0.034683
v 0.033843 0.471162 -0.040493
v 0.017271 0.471162 -0.040493
v 0.042132 0.239645 -0.020535
v 0.033844 0.239646 -0.006408
v 0.030345 0.215188 -0.010348
v 0.017271 0.239646 -0.006406
v 0.020774 0.215188 -0.010347
v 0.008984 0.239645 -0.020534
v 0.015989 0.213718 -0.020529
v 0.020773 0.215188 -0.030808
v 0.014656 1.387383 -0.039818
v 0.014656 1.160503 -0.030435
v 0.014656 0.924249 -0.023837
v 0.014656 0.690867 -0.020492
v 0.014657 0.503822 -0.020491
v 0.017271 0.239645 -0.034685
v 0.030344 0.215188 -0.030807
v 0.008984 0.471162 -0.020534
v 0.017271 0.471161 -0.000599
v 0.033843 0.471161 -0.000599
v 0.025032 0.139490 -0.029783
v 0.025033 0.139489 -0.011165
v 0.025032 0.216261 -0.029782
v 0.025033 0.216261 -0.011165
v 0.025033 0.062718 -0.011165
v 0.025032 0.062719 -0.029783
v 0.025033 -0.014053 -0.011165
v 0.025032 -0.014052 -0.029783
v 0.025033 -0.090824 -0.011165
v 0.025032 -0.090824 -0.029783
v 0.035125 0.213718 -0.020528
v 0.026458 0.483588 0.001191
v 0.012158 0.509601 -0.020598
v 0.012158 0.483589 -0.020597
v 0.025733 0.483589 -0.042794
v 0.026458 0.509602 0.001190
v 0.039386 0.509601 -0.020597
v 0.025733 0.509601 -0.042793
v 0.039385 0.483589 -0.020597
v 0.015989 0.213718 -0.020529
v 0.035125 0.213718 -0.020528
v 0.020774 0.215188 -0.010347
v 0.030345 0.215188 -0.010348
v 0.020773 0.215188 -0.030808
v -0.015236 0.488237 -0.078780
v -0.015236 0.488237 0.037327
v 0.067891 0.488237 -0.078780
v 0.067890 0.488237 0.037327
v 0.067890 0.469988 0.037329
v -0.015236 0.469988 0.037328
v 0.067891 0.469989 -0.078779
v -0.015236 0.469989 -0.078779
v -0.015236 0.469988 0.037328
v 0.067890 0.469988 0.037329
v -0.015236 0.488237 0.037327
v 0.067890 0.488237 0.037327
v -0.015236 0.469989 -0.078779
v -0.015236 0.469988 0.037328
v -0.015236 0.488237 -0.078780
v -0.015236 0.488237 0.037327
v -0.015236 0.488237 -0.078780
v 0.067891 0.488237 -0.078780
v -0.015236 0.469989 -0.078779
v 0.067891 0.469989 -0.078779
v 0.067890 0.469988 0.037329
v 0.067891 0.469989 -0.078779
v 0.067890 0.488237 0.037327
v 0.067891 0.488237 -0.078780
v 0.030344 0.215188 -0.030807
vt 0.457370 0.060090
vt 0.457370 0.002900
vt 0.376230 0.060090
vt 0.376230 0.002900
vt 0.298570 0.002900
vt 0.298570 0.060090
vt 0.532850 0.060090
vt 0.532850 0.002900
vt 0.608320 0.060090
vt 0.608320 0.002900
vt 0.842970 0.504260
vt 0.957160 0.503110
vt 0.996818 0.471573
vt 0.842970 0.504260
vt 0.903790 0.523850
vt 0.842970 0.538570
vt 0.753290 0.538570
vt 0.753180 0.504040
vt 0.660880 0.538570
vt 0.660880 0.504040
vt 0.559850 0.538590
vt 0.559850 0.504040
vt 0.451580 0.538570
vt 0.451580 0.504040
vt 0.362960 0.538570
vt 0.362960 0.504040
vt 0.842970 0.501703
vt 0.842970 0.448470
vt 0.997147 0.470370
vt 0.842970 0.501703
vt 0.753180 0.448470
vt 0.753180 0.501703
vt 0.660880 0.448470
vt 0.660880 0.501703
vt 0.559850 0.448470
vt 0.559850 0.501703
vt 0.451580 0.448470
vt 0.451580 0.501703
vt 0.362960 0.448470
vt 0.362960 0.501703
vt 0.753180 0.501703
vt 0.660880 0.501703
vt 0.559850 0.501703
vt 0.451580 0.501703
vt 0.362960 0.501703
vt 0.757640 0.007630
vt 0.802940 0.354330
vt 0.802940 0.007630
vt 0.802940 0.007630
vt 0.757640 0.354330
vt 0.709960 0.354330
vt 0.727890 0.388140
vt 0.709960 0.354330
vt 0.727890 0.388140
vt 0.757640 0.354330
vt 0.757640 0.388140
vt 0.784530 0.388140
vt 0.753180 0.504040
vt 0.660880 0.504040
vt 0.559850 0.504040
vt 0.451580 0.504040
vt 0.362960 0.504040
vt 0.802940 0.354330
vt 0.784530 0.388140
vt 0.757640 0.007630
vt 0.709960 0.007630
vt 0.709960 0.007630
vt 0.532850 0.002900
vt 0.532850 0.060090
vt 0.608320 0.002900
vt 0.608320 0.060090
vt 0.457370 0.060090
vt 0.457370 0.002900
vt 0.376230 0.060090
vt 0.376230 0.002900
vt 0.298570 0.060090
vt 0.298570 0.002900
vt 0.757640 0.388140
vt 0.679520 0.400760
vt 0.743700 0.433150
vt 0.743700 0.400760
vt 0.805800 0.400760
vt 0.679520 0.433150
vt 0.743700 0.433150
vt 0.805800 0.433150
vt 0.743700 0.400760
vt 0.847840 0.666950
vt 0.847840 0.666950
vt 0.847840 0.696700
vt 0.847840 0.696700
vt 0.847840 0.640070
vt 0.852420 0.741480
vt 0.852420 0.609890
vt 0.964530 0.741480
vt 0.964530 0.609890
vt 0.964530 0.609890
vt 0.852420 0.609890
vt 0.964530 0.741480
vt 0.852420 0.741480
vt 0.995620 0.605670
vt 0.995620 0.739190
vt 0.970420 0.605670
vt 0.970420 0.739190
vt 0.995620 0.610140
vt 0.995620 0.738230
vt 0.970420 0.610140
vt 0.970420 0.738230
vt 0.970420 0.743650
vt 0.970420 0.603590
vt 0.995620 0.743650
vt 0.995620 0.603590
vt 0.995620 0.609300
vt 0.995620 0.741750
vt 0.970420 0.609300
vt 0.970430 0.741750
vt 0.847840 0.640070
vn -1.0000 -0.0000 -0.0003
vn 1.0000 -0.0008 0.0008
vn 1.0000 0.0012 -0.0012
vn 1.0000 0.0003 0.0003
vn 1.0000 -0.0032 0.0031
vn -1.0000 -0.0021 -0.0020
vn -0.4645 0.6340 0.6183
vn -1.0000 0.0015 -0.0006
vn 1.0000 -0.0000 -0.0010
vn -1.0000 0.0003 0.0004
vn 0.0044 0.4458 -0.8951
vn 1.0000 0.0041 0.0069
vn 1.0000 -0.0039 -0.0022
vn 1.0000 -0.0041 0.0029
vn -0.9995 0.0138 0.0279
vn 0.0810 0.6761 0.7323
vn -0.0181 0.9223 -0.3860
vn 0.9999 0.0106 0.0040
vn -0.0106 0.3248 0.9457
vn 0.0214 0.1209 0.9924
vn 0.0243 0.0593 0.9979
vn 1.0000 0.0028 -0.0007
vn 0.0244 0.0350 0.9991
vn 1.0000 -0.0003 -0.0017
vn 0.0244 0.0214 0.9995
vn 1.0000 -0.0002 -0.0017
vn 0.0243 0.0073 0.9997
vn 1.0000 -0.0000 -0.0016
vn 0.0243 0.0000 0.9997
vn 1.0000 0.0000 -0.0039
vn 0.0005 -0.0798 -0.9968
vn -0.0180 0.9224 -0.3859
vn 0.0002 -0.0467 -0.9989
vn 0.0002 -0.0342 -0.9994
vn 0.0001 -0.0208 -0.9998
vn 0.0001 -0.0070 -1.0000
vn 0.0001 -0.0000 -1.0000
vn -0.9997 0.0041 0.0237
vn -0.9997 0.0006 0.0226
vn -0.9997 0.0003 0.0227
vn -0.9997 0.0001 0.0228
vn -0.9998 0.0000 0.0203
vn 1.0000 -0.0100 0.0002
vn 0.5033 -0.1071 -0.8574
vn 0.5510 -0.0209 -0.8342
vn -0.5510 -0.0209 -0.8342
vn 0.9932 -0.1162 0.0005
vn 0.5028 -0.1081 0.8576
vn 0.3694 -0.6400 0.6737
vn -0.5028 -0.1081 0.8576
vn -0.3692 -0.6401 0.6738
vn -0.9932 -0.1162 0.0005
vn -0.6712 -0.7413 0.0016
vn -0.3702 -0.6397 -0.6736
vn -0.9997 0.0005 0.0226
vn -0.9997 0.0001 0.0227
vn -0.9998 -0.0003 0.0203
vn -0.5033 -0.1071 -0.8574
vn 0.3703 -0.6397 -0.6735
vn -1.0000 -0.0100 0.0002
vn -0.5509 -0.0209 0.8343
vn 0.5509 -0.0209 0.8343
vn -1.0000 -0.0041 0.0070
vn -0.0084 -0.4458 -0.8951
vn -1.0000 -0.0029 0.0042
vn -1.0000 -0.0021 -0.0038
vn -1.0000 0.0009 0.0001
vn 1.0000 -0.0021 -0.0021
vn -1.0000 -0.0032 0.0032
vn 1.0000 0.0006 -0.0016
vn 0.4645 0.6183 0.6339
vn -1.0000 0.0012 -0.0011
vn 1.0000 -0.0005 -0.0001
vn -1.0000 -0.0008 0.0009
vn 0.6711 -0.7414 0.0016
vn 0.0226 0.0000 0.9997
vn -0.9999 0.0000 0.0159
vn -0.9999 0.0000 0.0160
vn -0.0013 -0.0000 -1.0000
vn 1.0000 -0.0000 -0.0080
vn 0.3694 -0.6400 0.6738
vn -0.5773 0.5774 -0.5774
vn -0.5773 0.5774 0.5774
vn 0.5773 0.5773 -0.5774
vn 0.5774 0.5774 0.5773
vn 0.5773 -0.5773 0.5774
vn -0.5773 -0.5773 0.5774
vn 0.5774 -0.5773 -0.5773
vn -0.5774 -0.5773 -0.5773
vn -0.5774 0.5773 0.5773
vn -0.5773 -0.5774 -0.5773
vn -0.5774 -0.5774 0.5773
vn -0.5773 0.5774 -0.5773
vn 0.5773 0.5774 -0.5773
vn 0.5773 -0.5774 0.5774
vn 0.5774 -0.5773 -0.5774
vn 0.5773 0.5774 0.5773
vn 0.5774 0.5773 -0.5774
usemtl bankaizangetsu
s 1
f 1/1/1 2/2/2 3/3/3
f 4/4/4 3/3/3 2/2/2
f 4/4/5 3/3/6 5/5/7
f 6/6/8 5/5/7 3/3/6
f 1/1/9 2/2/10 7/7/11
f 8/8/12 7/7/11 2/2/10
f 7/7/11 8/8/12 9/9/13
f 10/10/14 9/9/13 8/8/12
f 11/11/15 12/12/16 13/13/17
f 14/14/18 13/13/17 12/12/16
f 12/12/16 11/11/15 15/15/19
f 16/16/20 15/15/19 11/11/15
f 15/15/19 16/16/20 14/14/18
f 17/17/21 14/14/18 16/16/20
f 14/14/18 17/17/21 18/18/22
f 19/19/23 18/18/22 17/17/21
f 18/18/22 19/19/23 20/20/24
f 21/21/25 20/20/24 19/19/23
f 20/20/24 21/21/25 22/22/26
f 23/23/27 22/22/26 21/21/25
f 22/22/26 23/23/27 24/24/28
f 25/25/29 24/24/28 23/23/27
f 24/24/28 25/25/29 26/26/30
f 27/27/18 28/28/31 29/29/32
f 30/30/15 29/29/32 28/28/31
f 28/28/31 27/27/18 31/31/33
f 32/32/22 31/31/33 27/27/18
f 31/31/33 32/32/22 33/33/34
f 34/34/24 33/33/34 32/32/22
f 33/33/34 34/34/24 35/35/35
f 36/36/26 35/35/35 34/34/24
f 35/35/35 36/36/26 37/37/36
f 38/38/28 37/37/36 36/36/26
f 37/37/36 38/38/28 39/39/37
f 40/40/30 39/39/37 38/38/28
f 31/31/33 30/30/15 28/28/31
f 30/30/15 31/31/33 41/41/38
f 33/33/34 41/41/38 31/31/33
f 41/41/38 33/33/34 42/42/39
f 35/35/35 42/42/39 33/33/34
f 42/42/39 35/35/35 43/43/40
f 37/37/36 43/43/40 35/35/35
f 43/43/40 37/37/36 44/44/41
f 39/39/37 44/44/41 37/37/36
f 44/44/41 39/39/37 45/45/42
f 46/46/43 47/47/44 48/48/45
f 49/49/46 48/48/45 47/47/44
f 47/47/44 46/46/43 50/50/47
f 51/51/48 50/50/47 46/46/43
f 50/50/47 51/51/48 52/52/49
f 53/53/50 52/52/49 51/51/48
f 52/52/49 53/53/50 54/54/51
f 55/55/52 54/54/51 53/53/50
f 54/54/51 55/55/52 56/56/53
f 57/57/54 56/56/53 55/55/52
f 58/58/38 17/17/21 11/11/15
f 16/16/20 11/11/15 17/17/21
f 17/17/21 58/58/38 19/19/23
f 59/59/55 19/19/23 58/58/38
f 19/19/23 59/59/55 21/21/25
f 60/60/40 21/21/25 59/59/55
f 21/21/25 60/60/40 23/23/27
f 61/61/56 23/23/27 60/60/40
f 23/23/27 61/61/56 25/25/29
f 62/62/57 25/25/29 61/61/56
f 55/55/52 63/63/58 57/57/54
f 64/64/59 57/57/54 63/63/58
f 63/63/58 55/55/52 65/65/60
f 53/53/50 65/65/60 55/55/52
f 65/65/60 53/53/50 66/66/61
f 51/51/48 66/66/61 53/53/50
f 66/66/61 51/51/48 67/67/62
f 46/46/43 67/67/62 51/51/48
f 68/68/63 69/69/64 70/70/65
f 71/71/66 70/70/65 69/69/64
f 69/69/64 68/68/63 72/72/67
f 73/73/4 72/72/67 68/68/63
f 74/74/68 75/75/69 76/76/70
f 77/77/71 76/76/70 75/75/69
f 74/74/72 75/75/10 72/72/73
f 73/73/74 72/72/73 75/75/10
f 64/64/59 50/50/47 78/78/75
f 52/52/49 78/78/75 50/50/47
f 50/50/47 64/64/59 47/47/44
f 63/63/58 47/47/44 64/64/59
f 47/47/44 63/63/58 49/49/46
f 65/65/60 49/49/46 63/63/58
f 79/79/76 80/80/77 81/81/78
f 82/82/79 81/81/78 80/80/77
f 80/80/77 79/79/76 83/83/76
f 84/84/80 83/83/76 79/79/76
f 84/84/80 82/82/79 85/85/79
f 80/80/77 85/85/79 82/82/79
f 82/82/79 84/84/80 86/86/80
f 79/79/76 86/86/80 84/84/80
f 87/87/53 88/88/75 89/89/51
f 90/90/81 89/89/51 88/88/75
f 88/88/75 87/87/53 91/91/54
f 92/92/82 93/93/83 94/94/84
f 95/95/85 94/94/84 93/93/83
f 96/96/86 97/97/87 98/98/88
f 99/99/89 98/98/88 97/97/87
f 100/100/87 101/101/86 102/102/90
f 103/103/85 102/102/90 101/101/86
f 104/104/91 105/105/92 106/106/93
f 107/107/83 106/106/93 105/105/92
f 108/108/82 109/109/94 110/110/89
f 111/111/88 110/110/89 109/109/94
f 112/112/95 113/113/96 114/114/97
f 115/115/98 114/114/97 113/113/96
f 15/15/19 14/14/18 12/12/16
f 88/88/75 91/91/54 116/116/59
