# Blender v2.79 (sub 0) OBJ File: ''
# www.blender.org
mtllib hollowasauchi.mtl
o asauchi
v -0.016187 0.122782 0.027678
v -0.001445 0.122675 0.027719
v -0.013615 0.480339 0.028477
v 0.001127 0.480232 0.028518
v -0.004645 0.106843 0.017209
v -0.013157 0.106904 0.017185
v -0.000353 0.106542 0.002538
v -0.017375 0.106664 0.002491
v -0.004568 0.106300 -0.012157
v -0.013079 0.106360 -0.012181
v -0.001312 0.121782 -0.023139
v -0.016054 0.121887 -0.023180
v 0.001301 0.479076 -0.037673
v -0.013441 0.479182 -0.037714
v -0.023494 0.122387 0.002228
v -0.020902 0.479813 -0.004639
v 0.005993 0.122176 0.002309
v 0.008587 0.479602 -0.004558
v -0.099640 0.512326 -0.166805
v -0.084074 0.511897 -0.184889
v -0.084427 0.463157 -0.184039
v -0.072745 0.462450 -0.219748
v 0.086702 0.510983 -0.166289
v 0.085865 0.516526 0.151076
v 0.085511 0.467786 0.151926
v 0.070133 0.468173 0.167710
v -0.085354 0.469293 0.167280
v 0.060200 0.468838 0.201654
v -0.073855 0.469803 0.201283
v 0.060554 0.517578 0.200805
v -0.073502 0.518542 0.200434
v -0.085001 0.518033 0.166429
v -0.100831 0.469129 0.151411
v 0.086348 0.462243 -0.165440
v 0.071414 0.510778 -0.184460
v -0.072391 0.511189 -0.220598
v 0.061312 0.461484 -0.219379
v 0.071060 0.462037 -0.183609
v -0.099994 0.463586 -0.165954
v -0.100477 0.517868 0.150560
v 0.070487 0.516913 0.166859
v 0.061664 0.510224 -0.220228
v 0.002939 2.302270 0.083843
v -0.007597 0.569147 0.113358
v 0.006922 2.302319 0.087176
v -0.006592 0.569194 0.118315
v 0.010094 2.302271 0.083844
v -0.005696 0.569147 0.113360
v 0.007594 2.650008 0.003871
v 0.009271 2.650749 0.007616
v 0.011167 2.650008 0.003871
v 0.009652 2.774029 -0.173095
v 0.010648 2.779261 -0.175797
v 0.011702 2.774029 -0.173093
v 0.010712 2.800397 -0.220184
v 0.010783 2.800645 -0.220299
v 0.010867 2.800397 -0.220184
v 0.006925 2.302293 0.085380
v -0.007142 0.499949 0.116819
v 0.025547 2.299940 -0.041828
v -0.024107 0.497910 -0.007076
v 0.028075 2.629402 -0.098185
v 0.016702 2.298023 -0.155394
v 0.019015 2.608825 -0.181896
v -0.001583 2.298155 -0.155445
v 0.000728 2.608955 -0.181946
v -0.011030 2.300203 -0.041929
v -0.008501 2.629667 -0.098286
v 0.009652 2.650355 0.005624
v 0.010630 2.776905 -0.174581
v -0.014651 0.495801 -0.124002
v 0.003635 0.495670 -0.123952
v 0.012469 0.497646 -0.006975
v -0.016715 2.148190 -0.019222
v -0.023614 1.306871 -0.009456
v -0.004702 2.148603 0.002145
v -0.012082 1.307136 0.011884
v 0.010726 1.307076 0.011942
v 0.023530 1.306913 -0.009437
v 0.018142 2.148280 0.002259
v 0.029585 2.148022 -0.019086
v 0.010775 1.560870 0.026807
v 0.024038 1.561182 0.011153
v 0.014243 2.010343 0.019740
v 0.025265 2.009802 0.004410
v 0.009206 1.732080 0.042681
v 0.023602 1.731638 0.019773
v 0.010873 1.947126 0.039337
v 0.021727 1.946782 0.016444
v 0.005047 1.566498 0.064424
v 0.019457 1.566018 0.040046
v 0.008530 2.017627 0.057389
v 0.026051 2.017150 0.032970
v 0.000461 1.347129 0.087604
v 0.015982 1.346840 0.065394
v 0.007670 2.133105 0.072892
v 0.022790 2.132655 0.050746
v -0.005189 0.924020 0.105387
v 0.013535 0.923823 0.086227
v 0.008257 2.307014 0.083772
v 0.025937 2.306629 0.064684
v -0.015689 2.009792 0.004421
v -0.019460 1.561157 0.011150
v -0.003007 2.010472 0.019690
v -0.006454 1.560999 0.026723
v -0.015490 1.946941 0.016318
v -0.017318 1.731894 0.019683
v -0.000836 1.947312 0.039288
v -0.002498 1.732170 0.042636
v -0.016126 2.017447 0.032877
v -0.016936 1.566279 0.039938
v 0.002303 2.017689 0.057375
v -0.001169 1.566553 0.064430
v -0.009467 2.132858 0.050689
v -0.017789 1.346846 0.065382
v 0.004673 2.133104 0.072877
v -0.002560 1.347116 0.087609
v -0.006542 0.924024 0.105383
v 0.006901 2.307024 0.083763
v -0.024388 0.923818 0.086212
v -0.006506 2.306838 0.064605
vt 0.480470 0.910720
vt 0.480475 0.910720
vt 0.480450 0.624620
vt 0.480450 0.624620
vt 0.467470 0.931430
vt 0.467470 0.931430
vt 0.445230 0.931490
vt 0.445230 0.931490
vt 0.423660 0.931520
vt 0.423660 0.931520
vt 0.410590 0.910920
vt 0.410590 0.910950
vt 0.410500 0.624620
vt 0.410540 0.624620
vt 0.445270 0.910830
vt 0.445230 0.624630
vt 0.445270 0.910830
vt 0.445230 0.624630
vt 0.943670 0.105480
vt 0.952140 0.097330
vt 0.952150 0.097320
vt 0.962070 0.093500
vt 0.943870 0.000740
vt 0.807880 0.000450
vt 0.807880 0.000450
vt 0.799720 0.008320
vt 0.799440 0.099490
vt 0.786820 0.013360
vt 0.786630 0.096950
vt 0.786820 0.013360
vt 0.786630 0.096950
vt 0.799440 0.099490
vt 0.807870 0.105210
vt 0.943870 0.000740
vt 0.952100 0.006910
vt 0.962070 0.093500
vt 0.962220 0.013200
vt 0.952100 0.006910
vt 0.943670 0.105480
vt 0.807870 0.105210
vt 0.799850 0.008400
vt 0.962220 0.013200
vt 0.558520 0.785570
vt 0.558520 0.823910
vt 0.519420 0.785570
vt 0.519420 0.823910
vt 0.558520 0.785570
vt 0.558520 0.823910
vt 0.519420 0.785570
vt 0.519420 0.823910
vt 0.558520 0.785570
vt 0.558520 0.823910
vt 0.519420 0.785570
vt 0.519420 0.823910
vt 0.558520 0.785570
vt 0.558520 0.823910
vt 0.519420 0.785570
vt 0.519420 0.823910
vt 0.558520 0.785570
vt 0.558520 0.823910
vt 0.519420 0.785570
vt 0.519420 0.823910
vt 0.558520 0.785570
vt 0.558520 0.823910
vt 0.519420 0.785570
vt 0.519420 0.823910
vt 0.558520 0.785570
vt 0.558520 0.823910
vt 0.519420 0.785570
vt 0.519420 0.823910
vt 0.558520 0.785570
vt 0.558520 0.823910
vt 0.519420 0.785570
vt 0.519420 0.823910
vt 0.398260 0.607510
vt 0.996600 0.607770
vt 0.398260 0.512385
vt 0.996600 0.513410
vt 0.245620 0.477570
vt 0.398260 0.440085
vt 0.254427 0.424330
vt 0.398260 0.440160
vt 0.255720 0.424330
vt 0.398260 0.512510
vt 0.245620 0.477570
vt 0.259490 0.546280
vt 0.194550 0.419090
vt 0.192210 0.408760
vt 0.996600 0.441520
vt 0.996600 0.441620
vt 0.996600 0.513410
vt 0.591620 0.855240
vt 0.511760 0.855150
vt 0.591440 0.832650
vt 0.511850 0.832560
vt 0.506130 0.832560
vt 0.506040 0.855150
vt 0.591440 0.832650
vt 0.591620 0.855240
vt 0.506180 0.832510
vt 0.506180 0.855120
vt 0.591620 0.832740
vt 0.591620 0.855230
vt 0.506060 0.854890
vt 0.506150 0.832720
vt 0.591660 0.854800
vt 0.591570 0.832720
vt 0.506050 0.832800
vt 0.506090 0.854910
vt 0.591690 0.832760
vt 0.591690 0.854810
vt 0.506060 0.832720
vt 0.506060 0.854910
vt 0.591710 0.832720
vt 0.591710 0.854910
vt 0.506120 0.832520
vt 0.506120 0.855210
vt 0.591690 0.832520
vt 0.591690 0.855210
vt 0.591620 0.855230
vt 0.511800 0.855120
vt 0.591620 0.832740
vt 0.511800 0.832510
vt 0.591570 0.832720
vt 0.511980 0.832720
vt 0.591660 0.854800
vt 0.511890 0.854890
vt 0.591690 0.854810
vt 0.511920 0.854910
vt 0.591690 0.832760
vt 0.511880 0.832800
vt 0.591710 0.854910
vt 0.511780 0.854910
vt 0.591710 0.832720
vt 0.511780 0.832720
vt 0.511950 0.832520
vt 0.591690 0.832520
vt 0.511950 0.855210
vt 0.591690 0.855210
vn -0.5656 -0.2558 0.7840
vn 0.5564 -0.2655 0.7873
vn -0.6238 0.0027 0.7815
vn 0.6183 -0.0034 0.7859
vn 0.4093 -0.7916 0.4537
vn -0.4232 -0.7855 0.4515
vn 0.6173 -0.7866 0.0158
vn -0.6287 -0.7775 0.0123
vn 0.4118 -0.8065 -0.4241
vn -0.4210 -0.8006 -0.4263
vn 0.5622 -0.2913 -0.7740
vn -0.5609 -0.2850 -0.7772
vn 0.6229 -0.0363 -0.7815
vn -0.6178 -0.0246 -0.7859
vn -0.9843 -0.1765 0.0018
vn -1.0000 0.0049 -0.0015
vn 0.9816 -0.1906 0.0052
vn 0.9999 -0.0095 0.0010
vn -0.7179 0.6372 -0.2803
vn -0.5667 0.7523 -0.3358
vn -0.5777 -0.7553 -0.3095
vn -0.4749 -0.6035 -0.6405
vn 0.7289 0.6273 -0.2741
vn 0.7224 0.6313 0.2820
vn 0.7132 -0.6316 0.3040
vn 0.5499 -0.7639 0.3377
vn -0.5592 -0.7505 0.3522
vn 0.4774 -0.5858 0.6549
vn -0.4730 -0.5818 0.6616
vn 0.4860 0.6013 0.6342
vn -0.4643 0.6113 0.6409
vn -0.5482 0.7703 0.3257
vn -0.7234 -0.6207 0.3023
vn 0.7197 -0.6470 -0.2518
vn 0.5823 0.7493 -0.3154
vn -0.4663 0.5876 -0.6613
vn 0.4854 -0.6074 -0.6288
vn 0.5713 -0.7682 -0.2889
vn -0.7271 -0.6361 -0.2581
vn -0.7143 0.6413 0.2803
vn 0.5610 0.7672 0.3110
vn 0.4940 0.5780 -0.6495
vn -0.6405 0.0998 0.7614
vn -0.9798 0.0112 0.1998
vn 0.0548 0.1164 0.9917
vn 0.0051 0.0140 0.9999
vn 0.7225 0.0844 0.6861
vn 0.9840 -0.0059 0.1779
vn -0.8913 0.3013 0.3388
vn -0.0173 0.5085 0.8609
vn 0.8694 0.3178 0.3785
vn -0.9488 0.2675 0.1681
vn -0.0112 0.8862 0.4631
vn 0.9348 0.2928 0.2009
vn -0.9243 0.3414 0.1703
vn -0.0108 0.8973 0.4412
vn 0.8882 0.4316 0.1574
vn -0.0019 0.0958 0.9954
vn -0.0106 0.0203 0.9997
vn 0.9992 -0.0034 0.0393
vn -0.9996 0.0079 0.0278
vn 0.9970 0.0695 0.0327
vn 0.6863 -0.0444 -0.7259
vn 0.6898 -0.0802 -0.7195
vn -0.6837 -0.0324 -0.7290
vn -0.6847 -0.0852 -0.7238
vn -0.9994 0.0122 0.0327
vn -0.9966 0.0753 0.0331
vn 0.0015 0.5011 0.8654
vn 0.0576 0.9090 0.4127
vn -0.6770 -0.0080 -0.7359
vn 0.6809 -0.0178 -0.7322
vn 0.9991 -0.0064 0.0411
vn -0.8717 0.0128 0.4899
vn -0.8796 0.0132 0.4755
vn -0.8719 0.0128 0.4896
vn -0.8797 0.0132 0.4752
vn 0.8579 -0.0016 0.5138
vn 0.8583 -0.0016 0.5130
vn 0.8809 -0.0009 0.4733
vn 0.8813 -0.0009 0.4725
vn 0.7629 0.0043 0.6465
vn 0.7642 0.0043 0.6449
vn 0.8106 0.0065 0.5855
vn 0.8120 0.0065 0.5836
vn 0.8467 0.0017 0.5320
vn 0.8514 0.0027 0.5245
vn 0.8995 0.0135 0.4366
vn 0.9036 0.0145 0.4282
vn 0.8608 0.0013 0.5088
vn 0.8589 0.0011 0.5120
vn 0.8145 -0.0026 0.5801
vn 0.8124 -0.0027 0.5830
vn 0.8197 0.0032 0.5728
vn 0.8198 0.0032 0.5726
vn 0.8257 0.0033 0.5640
vn 0.8259 0.0033 0.5638
vn 0.7152 0.0040 0.6989
vn 0.7154 0.0040 0.6987
vn 0.7334 0.0040 0.6797
vn 0.7337 0.0040 0.6795
vn -0.7695 0.0160 0.6384
vn -0.7674 0.0159 0.6409
vn -0.7694 0.0160 0.6385
vn -0.7673 0.0159 0.6410
vn -0.8430 0.0156 0.5376
vn -0.8403 0.0150 0.5418
vn -0.8428 0.0155 0.5379
vn -0.8401 0.0149 0.5422
vn -0.7991 0.0108 0.6010
vn -0.8391 0.0147 0.5437
vn -0.8009 0.0110 0.5987
vn -0.8408 0.0149 0.5411
vn -0.8432 0.0190 0.5372
vn -0.8253 0.0182 0.5644
vn -0.8428 0.0190 0.5378
vn -0.8249 0.0182 0.5650
vn -0.7319 0.0178 0.6811
vn -0.8183 0.0195 0.5745
vn -0.7329 0.0178 0.6800
vn -0.8192 0.0195 0.5731
usemtl asauchi
s 1
f 1/1/1 2/2/2 3/3/3
f 4/4/4 3/3/3 2/2/2
f 2/2/2 1/1/1 5/5/5
f 6/6/6 5/5/5 1/1/1
f 5/5/5 6/6/6 7/7/7
f 8/8/8 7/7/7 6/6/6
f 7/7/7 8/8/8 9/9/9
f 10/10/10 9/9/9 8/8/8
f 9/9/9 10/10/10 11/11/11
f 12/12/12 11/11/11 10/10/10
f 11/11/11 12/12/12 13/13/13
f 14/14/14 13/13/13 12/12/12
f 15/15/15 1/1/1 16/16/16
f 3/3/3 16/16/16 1/1/1
f 1/1/1 15/15/15 6/6/6
f 8/8/8 6/6/6 15/15/15
f 12/12/12 15/15/15 14/14/14
f 16/16/16 14/14/14 15/15/15
f 15/15/15 12/12/12 8/8/8
f 10/10/10 8/8/8 12/12/12
f 17/17/17 2/2/2 7/7/7
f 5/5/5 7/7/7 2/2/2
f 2/2/2 17/17/17 4/4/4
f 18/18/18 4/4/4 17/17/17
f 11/11/11 17/17/17 9/9/9
f 7/7/7 9/9/9 17/17/17
f 17/17/17 11/11/11 18/18/18
f 13/13/13 18/18/18 11/11/11
f 19/19/19 20/20/20 21/21/21
f 22/22/22 21/21/21 20/20/20
f 20/20/20 19/19/19 23/23/23
f 24/24/24 23/23/23 19/19/19
f 23/23/23 24/24/24 25/25/25
f 26/26/26 25/25/25 24/24/24
f 25/25/25 26/26/26 27/27/27
f 28/28/28 27/27/27 26/26/26
f 27/27/27 28/28/28 29/29/29
f 30/30/30 29/29/29 28/28/28
f 29/29/29 30/30/30 31/31/31
f 32/32/32 31/31/31 30/30/30
f 31/31/31 32/32/32 27/27/27
f 33/33/33 27/27/27 32/32/32
f 27/27/27 33/33/33 25/25/25
f 34/34/34 25/25/25 33/33/33
f 25/25/25 34/34/34 23/23/23
f 35/35/35 23/23/23 34/34/34
f 23/23/23 35/35/35 20/20/20
f 36/36/36 20/20/20 35/35/35
f 20/20/20 36/36/36 22/22/22
f 37/37/37 22/22/22 36/36/36
f 22/22/22 37/37/37 21/21/21
f 38/38/38 21/21/21 37/37/37
f 21/21/21 38/38/38 39/39/39
f 34/34/34 39/39/39 38/38/38
f 39/39/39 34/34/34 33/33/33
f 32/32/32 40/40/40 33/33/33
f 39/39/39 33/33/33 40/40/40
f 40/40/40 32/32/32 41/41/41
f 30/30/30 41/41/41 32/32/32
f 41/41/41 30/30/30 28/28/28
f 42/42/42 35/35/35 38/38/38
f 34/34/34 38/38/38 35/35/35
f 35/35/35 42/42/42 36/36/36
f 37/37/37 36/36/36 42/42/42
f 21/21/21 39/39/39 19/19/19
f 40/40/40 19/19/19 39/39/39
f 19/19/19 40/40/40 24/24/24
f 41/41/41 24/24/24 40/40/40
f 24/24/24 41/41/41 26/26/26
f 28/28/28 26/26/26 41/41/41
f 42/42/42 38/38/38 37/37/37
f 31/31/31 27/27/27 29/29/29
f 43/43/43 44/44/44 45/45/45
f 46/46/46 45/45/45 44/44/44
f 45/47/45 46/48/46 47/49/47
f 48/50/48 47/49/47 46/48/46
f 49/51/49 43/52/43 50/53/50
f 45/54/45 50/53/50 43/52/43
f 50/55/50 45/56/45 51/57/51
f 47/58/47 51/57/51 45/56/45
f 52/59/52 49/60/49 53/61/53
f 50/62/50 53/61/53 49/60/49
f 53/63/53 50/64/50 54/65/54
f 51/66/51 54/65/54 50/64/50
f 55/67/55 52/68/52 56/69/56
f 53/70/53 56/69/56 52/68/52
f 56/71/56 53/72/53 57/73/57
f 54/74/54 57/73/57 53/72/53
f 58/75/58 59/76/59 60/77/60
f 61/78/61 59/76/59 58/75/58
f 58/75/58 60/77/60 62/79/62
f 63/80/63 62/79/62 60/77/60
f 62/79/62 63/80/63 64/81/64
f 65/82/65 64/81/64 63/80/63
f 64/81/64 65/82/65 66/83/66
f 67/84/67 66/83/66 65/82/65
f 66/83/66 67/84/67 68/85/68
f 58/75/58 68/85/68 67/84/67
f 68/85/68 58/75/58 69/86/69
f 62/79/62 69/86/69 58/75/58
f 69/86/69 62/79/62 70/87/70
f 64/81/64 70/87/70 62/79/62
f 70/87/70 64/81/64 57/88/57
f 66/83/66 57/88/57 64/81/64
f 57/88/57 66/83/66 68/85/68
f 63/80/63 71/89/71 65/82/65
f 67/84/67 65/82/65 71/89/71
f 71/89/71 63/80/63 72/90/72
f 60/77/60 72/90/72 63/80/63
f 72/90/72 60/77/60 73/91/73
f 59/76/59 73/91/73 60/77/60
f 69/86/69 70/87/70 68/85/68
f 57/88/57 68/85/68 70/87/70
f 71/89/71 61/78/61 67/84/67
f 58/75/58 67/84/67 61/78/61
f 74/92/74 75/93/75 76/94/76
f 77/95/77 76/94/76 75/93/75
f 78/96/78 79/97/79 80/98/80
f 81/99/81 80/98/80 79/97/79
f 82/100/82 83/101/83 84/102/84
f 85/103/85 84/102/84 83/101/83
f 86/104/86 87/105/87 88/106/88
f 89/107/89 88/106/88 87/105/87
f 90/108/90 91/109/91 92/110/92
f 93/111/93 92/110/92 91/109/91
f 94/112/94 95/113/95 96/114/96
f 97/115/97 96/114/96 95/113/95
f 98/116/98 99/117/99 100/118/100
f 101/119/101 100/118/100 99/117/99
f 102/120/102 103/121/103 104/122/104
f 105/123/105 104/122/104 103/121/103
f 106/124/106 107/125/107 108/126/108
f 109/127/109 108/126/108 107/125/107
f 110/128/110 111/129/111 112/130/112
f 113/131/113 112/130/112 111/129/111
f 114/132/114 115/133/115 116/134/116
f 117/135/117 116/134/116 115/133/115
f 118/136/118 119/137/119 120/138/120
f 121/139/121 120/138/120 119/137/119
